<mxfile host="app.diagrams.net" agent="Mozilla/5.0 (Windows NT 10.0; Win64; x64) AppleWebKit/537.36 (KHTML, like Gecko) Chrome/133.0.0.0 Safari/537.36" version="26.0.16">
  <diagram name="Page-1" id="9brbDUnrhYzMdTlAionV">
    <mxGraphModel dx="1050" dy="557" grid="1" gridSize="10" guides="1" tooltips="1" connect="1" arrows="1" fold="1" page="1" pageScale="1" pageWidth="850" pageHeight="1100" math="0" shadow="0">
      <root>
        <mxCell id="0" />
        <mxCell id="1" parent="0" />
        <mxCell id="Cb9HJdkNRK7Axn8XJaEo-1" value="TrafficLight" style="swimlane;fontStyle=1;align=center;verticalAlign=top;childLayout=stackLayout;horizontal=1;startSize=36.8;horizontalStack=0;resizeParent=1;resizeParentMax=0;resizeLast=0;collapsible=0;marginBottom=0;" vertex="1" parent="1">
          <mxGeometry x="43" y="525" width="299" height="192.8" as="geometry" />
        </mxCell>
        <mxCell id="Cb9HJdkNRK7Axn8XJaEo-2" value="- int id" style="text;strokeColor=none;fillColor=none;align=left;verticalAlign=top;spacingLeft=4;spacingRight=4;overflow=hidden;rotatable=0;points=[[0,0.5],[1,0.5]];portConstraint=eastwest;" vertex="1" parent="Cb9HJdkNRK7Axn8XJaEo-1">
          <mxGeometry y="36.8" width="299" height="37" as="geometry" />
        </mxCell>
        <mxCell id="Cb9HJdkNRK7Axn8XJaEo-3" value="- String state" style="text;strokeColor=none;fillColor=none;align=left;verticalAlign=top;spacingLeft=4;spacingRight=4;overflow=hidden;rotatable=0;points=[[0,0.5],[1,0.5]];portConstraint=eastwest;" vertex="1" parent="Cb9HJdkNRK7Axn8XJaEo-1">
          <mxGeometry y="73.8" width="299" height="37" as="geometry" />
        </mxCell>
        <mxCell id="Cb9HJdkNRK7Axn8XJaEo-4" style="line;strokeWidth=1;fillColor=none;align=left;verticalAlign=middle;spacingTop=-1;spacingLeft=3;spacingRight=3;rotatable=0;labelPosition=right;points=[];portConstraint=eastwest;strokeColor=inherit;" vertex="1" parent="Cb9HJdkNRK7Axn8XJaEo-1">
          <mxGeometry y="110.8" width="299" height="8" as="geometry" />
        </mxCell>
        <mxCell id="Cb9HJdkNRK7Axn8XJaEo-5" value="+ changeState(newState: String)" style="text;strokeColor=none;fillColor=none;align=left;verticalAlign=top;spacingLeft=4;spacingRight=4;overflow=hidden;rotatable=0;points=[[0,0.5],[1,0.5]];portConstraint=eastwest;" vertex="1" parent="Cb9HJdkNRK7Axn8XJaEo-1">
          <mxGeometry y="118.8" width="299" height="37" as="geometry" />
        </mxCell>
        <mxCell id="Cb9HJdkNRK7Axn8XJaEo-6" value="+ getState() : : String" style="text;strokeColor=none;fillColor=none;align=left;verticalAlign=top;spacingLeft=4;spacingRight=4;overflow=hidden;rotatable=0;points=[[0,0.5],[1,0.5]];portConstraint=eastwest;" vertex="1" parent="Cb9HJdkNRK7Axn8XJaEo-1">
          <mxGeometry y="155.8" width="299" height="37" as="geometry" />
        </mxCell>
        <mxCell id="Cb9HJdkNRK7Axn8XJaEo-7" value="Vehicle" style="swimlane;fontStyle=1;align=center;verticalAlign=top;childLayout=stackLayout;horizontal=1;startSize=36.8;horizontalStack=0;resizeParent=1;resizeParentMax=0;resizeLast=0;collapsible=0;marginBottom=0;" vertex="1" parent="1">
          <mxGeometry x="225" y="789" width="259" height="192.8" as="geometry" />
        </mxCell>
        <mxCell id="Cb9HJdkNRK7Axn8XJaEo-8" value="- int vehicleId" style="text;strokeColor=none;fillColor=none;align=left;verticalAlign=top;spacingLeft=4;spacingRight=4;overflow=hidden;rotatable=0;points=[[0,0.5],[1,0.5]];portConstraint=eastwest;" vertex="1" parent="Cb9HJdkNRK7Axn8XJaEo-7">
          <mxGeometry y="36.8" width="259" height="37" as="geometry" />
        </mxCell>
        <mxCell id="Cb9HJdkNRK7Axn8XJaEo-9" value="- DateTime arrivalTime" style="text;strokeColor=none;fillColor=none;align=left;verticalAlign=top;spacingLeft=4;spacingRight=4;overflow=hidden;rotatable=0;points=[[0,0.5],[1,0.5]];portConstraint=eastwest;" vertex="1" parent="Cb9HJdkNRK7Axn8XJaEo-7">
          <mxGeometry y="73.8" width="259" height="37" as="geometry" />
        </mxCell>
        <mxCell id="Cb9HJdkNRK7Axn8XJaEo-10" value="- DateTime passTime" style="text;strokeColor=none;fillColor=none;align=left;verticalAlign=top;spacingLeft=4;spacingRight=4;overflow=hidden;rotatable=0;points=[[0,0.5],[1,0.5]];portConstraint=eastwest;" vertex="1" parent="Cb9HJdkNRK7Axn8XJaEo-7">
          <mxGeometry y="110.8" width="259" height="37" as="geometry" />
        </mxCell>
        <mxCell id="Cb9HJdkNRK7Axn8XJaEo-11" style="line;strokeWidth=1;fillColor=none;align=left;verticalAlign=middle;spacingTop=-1;spacingLeft=3;spacingRight=3;rotatable=0;labelPosition=right;points=[];portConstraint=eastwest;strokeColor=inherit;" vertex="1" parent="Cb9HJdkNRK7Axn8XJaEo-7">
          <mxGeometry y="147.8" width="259" height="8" as="geometry" />
        </mxCell>
        <mxCell id="Cb9HJdkNRK7Axn8XJaEo-12" value="+ getPassTime() : : DateTime" style="text;strokeColor=none;fillColor=none;align=left;verticalAlign=top;spacingLeft=4;spacingRight=4;overflow=hidden;rotatable=0;points=[[0,0.5],[1,0.5]];portConstraint=eastwest;" vertex="1" parent="Cb9HJdkNRK7Axn8XJaEo-7">
          <mxGeometry y="155.8" width="259" height="37" as="geometry" />
        </mxCell>
        <mxCell id="Cb9HJdkNRK7Axn8XJaEo-13" value="Queue" style="swimlane;fontStyle=1;align=center;verticalAlign=top;childLayout=stackLayout;horizontal=1;startSize=40;horizontalStack=0;resizeParent=1;resizeParentMax=0;resizeLast=0;collapsible=0;marginBottom=0;" vertex="1" parent="1">
          <mxGeometry x="392" y="537" width="248" height="168" as="geometry" />
        </mxCell>
        <mxCell id="Cb9HJdkNRK7Axn8XJaEo-14" value="- List vehicles" style="text;strokeColor=none;fillColor=none;align=left;verticalAlign=top;spacingLeft=4;spacingRight=4;overflow=hidden;rotatable=0;points=[[0,0.5],[1,0.5]];portConstraint=eastwest;" vertex="1" parent="Cb9HJdkNRK7Axn8XJaEo-13">
          <mxGeometry y="40" width="248" height="40" as="geometry" />
        </mxCell>
        <mxCell id="Cb9HJdkNRK7Axn8XJaEo-15" style="line;strokeWidth=1;fillColor=none;align=left;verticalAlign=middle;spacingTop=-1;spacingLeft=3;spacingRight=3;rotatable=0;labelPosition=right;points=[];portConstraint=eastwest;strokeColor=inherit;" vertex="1" parent="Cb9HJdkNRK7Axn8XJaEo-13">
          <mxGeometry y="80" width="248" height="8" as="geometry" />
        </mxCell>
        <mxCell id="Cb9HJdkNRK7Axn8XJaEo-16" value="+ enqueue(vehicle: Vehicle)" style="text;strokeColor=none;fillColor=none;align=left;verticalAlign=top;spacingLeft=4;spacingRight=4;overflow=hidden;rotatable=0;points=[[0,0.5],[1,0.5]];portConstraint=eastwest;" vertex="1" parent="Cb9HJdkNRK7Axn8XJaEo-13">
          <mxGeometry y="88" width="248" height="40" as="geometry" />
        </mxCell>
        <mxCell id="Cb9HJdkNRK7Axn8XJaEo-17" value="+ dequeue() : : Vehicle" style="text;strokeColor=none;fillColor=none;align=left;verticalAlign=top;spacingLeft=4;spacingRight=4;overflow=hidden;rotatable=0;points=[[0,0.5],[1,0.5]];portConstraint=eastwest;" vertex="1" parent="Cb9HJdkNRK7Axn8XJaEo-13">
          <mxGeometry y="128" width="248" height="40" as="geometry" />
        </mxCell>
        <mxCell id="Cb9HJdkNRK7Axn8XJaEo-18" value="List" style="swimlane;fontStyle=1;align=center;verticalAlign=top;childLayout=stackLayout;horizontal=1;startSize=40;horizontalStack=0;resizeParent=1;resizeParentMax=0;resizeLast=0;collapsible=0;marginBottom=0;" vertex="1" parent="1">
          <mxGeometry x="20" y="284" width="345" height="168" as="geometry" />
        </mxCell>
        <mxCell id="Cb9HJdkNRK7Axn8XJaEo-19" value="- List trafficLights" style="text;strokeColor=none;fillColor=none;align=left;verticalAlign=top;spacingLeft=4;spacingRight=4;overflow=hidden;rotatable=0;points=[[0,0.5],[1,0.5]];portConstraint=eastwest;" vertex="1" parent="Cb9HJdkNRK7Axn8XJaEo-18">
          <mxGeometry y="40" width="345" height="40" as="geometry" />
        </mxCell>
        <mxCell id="Cb9HJdkNRK7Axn8XJaEo-20" style="line;strokeWidth=1;fillColor=none;align=left;verticalAlign=middle;spacingTop=-1;spacingLeft=3;spacingRight=3;rotatable=0;labelPosition=right;points=[];portConstraint=eastwest;strokeColor=inherit;" vertex="1" parent="Cb9HJdkNRK7Axn8XJaEo-18">
          <mxGeometry y="80" width="345" height="8" as="geometry" />
        </mxCell>
        <mxCell id="Cb9HJdkNRK7Axn8XJaEo-21" value="+ addTrafficLight(trafficLight: TrafficLight)" style="text;strokeColor=none;fillColor=none;align=left;verticalAlign=top;spacingLeft=4;spacingRight=4;overflow=hidden;rotatable=0;points=[[0,0.5],[1,0.5]];portConstraint=eastwest;" vertex="1" parent="Cb9HJdkNRK7Axn8XJaEo-18">
          <mxGeometry y="88" width="345" height="40" as="geometry" />
        </mxCell>
        <mxCell id="Cb9HJdkNRK7Axn8XJaEo-22" value="+ getTrafficLight(id: int) : : TrafficLight" style="text;strokeColor=none;fillColor=none;align=left;verticalAlign=top;spacingLeft=4;spacingRight=4;overflow=hidden;rotatable=0;points=[[0,0.5],[1,0.5]];portConstraint=eastwest;" vertex="1" parent="Cb9HJdkNRK7Axn8XJaEo-18">
          <mxGeometry y="128" width="345" height="40" as="geometry" />
        </mxCell>
        <mxCell id="Cb9HJdkNRK7Axn8XJaEo-23" value="TrafficController" style="swimlane;fontStyle=1;align=center;verticalAlign=top;childLayout=stackLayout;horizontal=1;startSize=36.8;horizontalStack=0;resizeParent=1;resizeParentMax=0;resizeLast=0;collapsible=0;marginBottom=0;" vertex="1" parent="1">
          <mxGeometry x="239" y="20" width="230" height="192.8" as="geometry" />
        </mxCell>
        <mxCell id="Cb9HJdkNRK7Axn8XJaEo-24" value="- List trafficLights" style="text;strokeColor=none;fillColor=none;align=left;verticalAlign=top;spacingLeft=4;spacingRight=4;overflow=hidden;rotatable=0;points=[[0,0.5],[1,0.5]];portConstraint=eastwest;" vertex="1" parent="Cb9HJdkNRK7Axn8XJaEo-23">
          <mxGeometry y="36.8" width="230" height="37" as="geometry" />
        </mxCell>
        <mxCell id="Cb9HJdkNRK7Axn8XJaEo-25" value="- List vehicleQueues" style="text;strokeColor=none;fillColor=none;align=left;verticalAlign=top;spacingLeft=4;spacingRight=4;overflow=hidden;rotatable=0;points=[[0,0.5],[1,0.5]];portConstraint=eastwest;" vertex="1" parent="Cb9HJdkNRK7Axn8XJaEo-23">
          <mxGeometry y="73.8" width="230" height="37" as="geometry" />
        </mxCell>
        <mxCell id="Cb9HJdkNRK7Axn8XJaEo-26" style="line;strokeWidth=1;fillColor=none;align=left;verticalAlign=middle;spacingTop=-1;spacingLeft=3;spacingRight=3;rotatable=0;labelPosition=right;points=[];portConstraint=eastwest;strokeColor=inherit;" vertex="1" parent="Cb9HJdkNRK7Axn8XJaEo-23">
          <mxGeometry y="110.8" width="230" height="8" as="geometry" />
        </mxCell>
        <mxCell id="Cb9HJdkNRK7Axn8XJaEo-27" value="+ manageTraffic()" style="text;strokeColor=none;fillColor=none;align=left;verticalAlign=top;spacingLeft=4;spacingRight=4;overflow=hidden;rotatable=0;points=[[0,0.5],[1,0.5]];portConstraint=eastwest;" vertex="1" parent="Cb9HJdkNRK7Axn8XJaEo-23">
          <mxGeometry y="118.8" width="230" height="37" as="geometry" />
        </mxCell>
        <mxCell id="Cb9HJdkNRK7Axn8XJaEo-28" value="+ optimizeTraffic()" style="text;strokeColor=none;fillColor=none;align=left;verticalAlign=top;spacingLeft=4;spacingRight=4;overflow=hidden;rotatable=0;points=[[0,0.5],[1,0.5]];portConstraint=eastwest;" vertex="1" parent="Cb9HJdkNRK7Axn8XJaEo-23">
          <mxGeometry y="155.8" width="230" height="37" as="geometry" />
        </mxCell>
        <mxCell id="Cb9HJdkNRK7Axn8XJaEo-29" value="controls" style="curved=1;startArrow=none;endArrow=open;endSize=12;exitX=0.5;exitY=1;entryX=0.04;entryY=0;rounded=0;" edge="1" parent="1" source="Cb9HJdkNRK7Axn8XJaEo-1" target="Cb9HJdkNRK7Axn8XJaEo-7">
          <mxGeometry relative="1" as="geometry">
            <Array as="points">
              <mxPoint x="192" y="753" />
            </Array>
          </mxGeometry>
        </mxCell>
        <mxCell id="Cb9HJdkNRK7Axn8XJaEo-30" value="1" style="edgeLabel;resizable=0;labelBackgroundColor=none;fontSize=12;align=right;verticalAlign=top;" vertex="1" parent="Cb9HJdkNRK7Axn8XJaEo-29">
          <mxGeometry x="-1" relative="1" as="geometry" />
        </mxCell>
        <mxCell id="Cb9HJdkNRK7Axn8XJaEo-31" value="*" style="edgeLabel;resizable=0;labelBackgroundColor=none;fontSize=12;align=left;verticalAlign=bottom;" vertex="1" parent="Cb9HJdkNRK7Axn8XJaEo-29">
          <mxGeometry x="1" relative="1" as="geometry" />
        </mxCell>
        <mxCell id="Cb9HJdkNRK7Axn8XJaEo-32" value="manages" style="curved=1;startArrow=none;endArrow=open;endSize=12;exitX=0.5;exitY=1;entryX=0.95;entryY=0;rounded=0;" edge="1" parent="1" source="Cb9HJdkNRK7Axn8XJaEo-13" target="Cb9HJdkNRK7Axn8XJaEo-7">
          <mxGeometry relative="1" as="geometry">
            <Array as="points">
              <mxPoint x="516" y="753" />
            </Array>
          </mxGeometry>
        </mxCell>
        <mxCell id="Cb9HJdkNRK7Axn8XJaEo-33" value="1" style="edgeLabel;resizable=0;labelBackgroundColor=none;fontSize=12;align=right;verticalAlign=top;" vertex="1" parent="Cb9HJdkNRK7Axn8XJaEo-32">
          <mxGeometry x="-1" relative="1" as="geometry" />
        </mxCell>
        <mxCell id="Cb9HJdkNRK7Axn8XJaEo-34" value="*" style="edgeLabel;resizable=0;labelBackgroundColor=none;fontSize=12;align=left;verticalAlign=bottom;" vertex="1" parent="Cb9HJdkNRK7Axn8XJaEo-32">
          <mxGeometry x="1" relative="1" as="geometry" />
        </mxCell>
        <mxCell id="Cb9HJdkNRK7Axn8XJaEo-35" value="holds" style="curved=1;startArrow=none;endArrow=open;endSize=12;exitX=0.5;exitY=1;entryX=0.5;entryY=0;rounded=0;" edge="1" parent="1" source="Cb9HJdkNRK7Axn8XJaEo-18" target="Cb9HJdkNRK7Axn8XJaEo-1">
          <mxGeometry relative="1" as="geometry">
            <Array as="points" />
          </mxGeometry>
        </mxCell>
        <mxCell id="Cb9HJdkNRK7Axn8XJaEo-36" value="1" style="edgeLabel;resizable=0;labelBackgroundColor=none;fontSize=12;align=right;verticalAlign=top;" vertex="1" parent="Cb9HJdkNRK7Axn8XJaEo-35">
          <mxGeometry x="-1" relative="1" as="geometry" />
        </mxCell>
        <mxCell id="Cb9HJdkNRK7Axn8XJaEo-37" value="*" style="edgeLabel;resizable=0;labelBackgroundColor=none;fontSize=12;align=left;verticalAlign=bottom;" vertex="1" parent="Cb9HJdkNRK7Axn8XJaEo-35">
          <mxGeometry x="1" relative="1" as="geometry" />
        </mxCell>
        <mxCell id="Cb9HJdkNRK7Axn8XJaEo-38" value="manages" style="curved=1;startArrow=none;endArrow=open;endSize=12;exitX=0;exitY=0.99;entryX=0.5;entryY=0;rounded=0;" edge="1" parent="1" source="Cb9HJdkNRK7Axn8XJaEo-23" target="Cb9HJdkNRK7Axn8XJaEo-18">
          <mxGeometry relative="1" as="geometry">
            <Array as="points">
              <mxPoint x="192" y="248" />
            </Array>
          </mxGeometry>
        </mxCell>
        <mxCell id="Cb9HJdkNRK7Axn8XJaEo-39" value="1" style="edgeLabel;resizable=0;labelBackgroundColor=none;fontSize=12;align=right;verticalAlign=top;" vertex="1" parent="Cb9HJdkNRK7Axn8XJaEo-38">
          <mxGeometry x="-1" relative="1" as="geometry" />
        </mxCell>
        <mxCell id="Cb9HJdkNRK7Axn8XJaEo-40" value="*" style="edgeLabel;resizable=0;labelBackgroundColor=none;fontSize=12;align=left;verticalAlign=bottom;" vertex="1" parent="Cb9HJdkNRK7Axn8XJaEo-38">
          <mxGeometry x="1" relative="1" as="geometry" />
        </mxCell>
        <mxCell id="Cb9HJdkNRK7Axn8XJaEo-41" value="manages" style="curved=1;startArrow=none;endArrow=open;endSize=12;exitX=1;exitY=0.99;entryX=0.5;entryY=0;rounded=0;" edge="1" parent="1" source="Cb9HJdkNRK7Axn8XJaEo-23" target="Cb9HJdkNRK7Axn8XJaEo-13">
          <mxGeometry relative="1" as="geometry">
            <Array as="points">
              <mxPoint x="516" y="248" />
            </Array>
          </mxGeometry>
        </mxCell>
        <mxCell id="Cb9HJdkNRK7Axn8XJaEo-42" value="1" style="edgeLabel;resizable=0;labelBackgroundColor=none;fontSize=12;align=right;verticalAlign=top;" vertex="1" parent="Cb9HJdkNRK7Axn8XJaEo-41">
          <mxGeometry x="-1" relative="1" as="geometry" />
        </mxCell>
        <mxCell id="Cb9HJdkNRK7Axn8XJaEo-43" value="*" style="edgeLabel;resizable=0;labelBackgroundColor=none;fontSize=12;align=left;verticalAlign=bottom;" vertex="1" parent="Cb9HJdkNRK7Axn8XJaEo-41">
          <mxGeometry x="1" relative="1" as="geometry" />
        </mxCell>
      </root>
    </mxGraphModel>
  </diagram>
</mxfile>
